C:/Program Files/Krita (x64)/bin/ffmpeg.exe -hide_banner -y -y -r 4 -start_number 0 -start_number_range 1 -i D:/Documents/_CV et Communication/Github Page/vhaye.github.io/Assets/ReelGif/image%04d.png -i D:/Documents/_CV et Communication/Github Page/vhaye.github.io/Assets/ReelGif/KritaTempPalettegen_%06d.png -lavfi [0:v][1:v]paletteuse=dither=sierra2_4a:diff_mode=none -f gif -loop 0 -gifflags +transdiff D:/Documents/_CV et Communication/Github Page/vhaye.github.io/Assets/ReelGif/directions_run.gif
=====================================================
Input #0, image2, from 'D:/Documents/_CV et Communication/Github Page/vhaye.github.io/Assets/ReelGif/image%04d.png':
  Duration: 00:00:00.12, start: 0.000000, bitrate: N/A
  Stream #0:0: Video: png, rgba(pc, gbr/unknown/unknown), 24x24 [SAR 78740:78740 DAR 1:1], 25 fps, 25 tbr, 25 tbn
Input #1, image2, from 'D:/Documents/_CV et Communication/Github Page/vhaye.github.io/Assets/ReelGif/KritaTempPalettegen_%06d.png':
  Duration: 00:00:00.04, start: 0.000000, bitrate: N/A
  Stream #1:0: Video: png, rgba(pc, gbr/unknown/unknown), 16x16 [SAR 1:1 DAR 1:1], 25 fps, 25 tbr, 25 tbn
Stream mapping:
  Stream #0:0 (png) -> paletteuse
  Stream #1:0 (png) -> paletteuse
  paletteuse:default -> Stream #0:0 (gif)
Press [q] to stop, [?] for help
Output #0, gif, to 'D:/Documents/_CV et Communication/Github Page/vhaye.github.io/Assets/ReelGif/directions_run.gif':
  Metadata:
    encoder         : Lavf61.7.100
  Stream #0:0: Video: gif, pal8(pc, gbr/unknown/unknown, progressive), 24x24 [SAR 1:1 DAR 1:1], q=2-31, 200 kb/s, 4 fps, 100 tbn
      Metadata:
        encoder         : Lavc61.19.101 gif
[out#0/gif @ 000001eaedaf72c0] video:1KiB audio:0KiB subtitle:0KiB other streams:0KiB global headers:0KiB muxing overhead: 1.680672%
frame=    3 fps=0.0 q=-0.0 Lsize=       1KiB time=00:00:00.75 bitrate=  12.9kbits/s speed=36.5x    
